# xmcd CD database file
#
# Track frame offsets:
#	150
#	17164
#	30170
#	43605
#	60437
#	73196
#	89564
#	102286
#	117750
#	132492
#	148329
#	161678
#	175017
#	188734
#	200294
#	213889
#	229722
#	243676
#	259164
#	273202
#	289795
#	302783
#	314660
#	327527
#	337776
#
# Disc length: 4669 seconds
#
# Revision: 0
# Processed by: cddbd v1.5.2PL0 Copyright (c) Steve Scherf et al.
# Submitted via: ACXtractor (MTCDDB.DLL V2003.07.15)
#
DISCID=71123b19
DTITLE=Mixed - Boot Scootin Country
DYEAR=2000
DGENRE=Country
TTITLE0=Honky Tonk Ballroom
TTITLE1=What the Cowgirls Do
TTITLE2=Down Lousiana Way
TTITLE3=Darlin' we Havn't been Dancing
TTITLE4=Wool Shed Waltz
TTITLE5=Blue Roses
TTITLE6=Easy Walking
TTITLE7=We'll Waltz in Love Again
TTITLE8=Friends for Life
TTITLE9=Inline and Outline
TTITLE10=Speak to the Sky
TTITLE11=Setting the Woods on Fire
TTITLE12=Right Side
TTITLE13=Hillbilly Rock and Roll
TTITLE14=One Good Reason
TTITLE15=Old Love Never Dies
TTITLE16=Sweet Little Miss Blue Eyes
TTITLE17=Acky Breaky Heart
TTITLE18=Country Stroll
TTITLE19=I Believe In
TTITLE20=I Wish I Could fall in Love
TTITLE21=In the Middle of a Heartache
TTITLE22=She was only Sixteen
TTITLE23=Venius in Blue Jeans
TTITLE24=What I've got in Mind
EXTD=ID3G:   2 YEAR: 2000
EXTT0=
EXTT1=
EXTT2=
EXTT3=
EXTT4=
EXTT5=
EXTT6=
EXTT7=
EXTT8=
EXTT9=
EXTT10=
EXTT11=
EXTT12=
EXTT13=
EXTT14=
EXTT15=
EXTT16=
EXTT17=
EXTT18=
EXTT19=
EXTT20=
EXTT21=
EXTT22=
EXTT23=
EXTT24=
PLAYORDER=
